<svg width="19" height="20" viewBox="0 0 19 20" fill="none" xmlns="http://www.w3.org/2000/svg">
<g clip-path="url(#clip0_684_52)">
<path d="M8.07455 15.7747C7.84768 16.0016 7.5727 16.115 7.24959 16.115C6.92648 16.115 6.6515 16.0016 6.42463 15.7747L3.1248 12.4749C2.89794 12.248 2.78451 11.973 2.78451 11.6499C2.78451 11.3268 2.89794 11.0518 3.1248 10.8249L9.72446 4.22528C9.95133 3.99842 10.2263 3.88499 10.5494 3.88499C10.8725 3.88499 11.1475 3.99842 11.3744 4.22528L14.6742 7.52511C14.9011 7.75198 15.0145 8.02696 15.0145 8.35007C15.0145 8.67318 14.9011 8.94816 14.6742 9.17503L8.07455 15.7747ZM7.24959 14.9497L13.8493 8.35007L10.5494 5.05024L9.31199 6.28768L10.9619 7.93759L10.1369 8.76255L8.48703 7.11263L7.66207 7.93759L9.31199 9.58751L8.48703 10.4125L6.83711 8.76255L6.01215 9.58751L7.66207 11.2374L6.83711 12.0624L5.1872 10.4125L3.94976 11.6499L7.24959 14.9497Z" fill="white"/>
</g>
<defs>
<clipPath id="clip0_684_52">
<rect width="14" height="14" fill="white" transform="translate(-0.999992 10) rotate(-45)"/>
</clipPath>
</defs>
</svg>
